<svg width="32" height="32" viewBox="0 0 32 32" fill="none" xmlns="http://www.w3.org/2000/svg">
<g clip-path="url(#clip0_2264_15799)">
<path d="M7.99967 12.6665H5.33301V21.9998H7.99967V12.6665Z" fill="#465EFF"/>
<path d="M15.9997 12.6665H13.333V21.9998H15.9997V12.6665Z" fill="#465EFF"/>
<path d="M27.9997 7.33317L14.6663 0.666504L1.33301 7.33317V9.99984H27.9997V7.33317ZM7.29301 7.33317L14.6663 3.65317L22.0397 7.33317H7.29301Z" fill="#465EFF"/>
<path d="M1.33301 24.6665V27.3332H17.8663C17.5863 26.4798 17.4397 25.5865 17.3863 24.6665H1.33301Z" fill="#465EFF"/>
<path d="M23.9997 15.6798V12.6665H21.333V17.0132L23.9997 15.6798Z" fill="#465EFF"/>
<path d="M25.333 17.9998L19.9997 20.6665V24.0665C19.9997 27.4265 22.2797 30.5732 25.333 31.3332C28.3863 30.5732 30.6663 27.4265 30.6663 24.0665V20.6665L25.333 17.9998ZM24.373 27.3332L21.6663 24.6265L23.0797 23.2132L24.373 24.5065L27.5863 21.3332L28.9997 22.7465L24.373 27.3332Z" fill="#465EFF"/>
</g>
<defs>
<clipPath id="clip0_2264_15799">
<rect width="32" height="32" fill="white"/>
</clipPath>
</defs>
</svg>
