<svg width="32" height="32" viewBox="0 0 32 32" fill="none" xmlns="http://www.w3.org/2000/svg">
<path d="M21.3337 20.8267C22.1584 20.8267 22.827 20.1582 22.827 19.3334C22.827 18.5087 22.1584 17.8401 21.3337 17.8401C20.5089 17.8401 19.8403 18.5087 19.8403 19.3334C19.8403 20.1582 20.5089 20.8267 21.3337 20.8267Z" fill="#465EFF"/>
<path fill-rule="evenodd" clip-rule="evenodd" d="M21.3337 22.0001C20.3603 22.0001 18.4137 22.4801 18.347 23.4401C19.0137 24.3867 20.107 25.0001 21.3337 25.0001C22.5603 25.0001 23.6537 24.3867 24.3203 23.4401C24.2537 22.4801 22.307 22.0001 21.3337 22.0001Z" fill="#465EFF"/>
<path fill-rule="evenodd" clip-rule="evenodd" d="M22.667 13.4534V7.02675L12.667 2.66675L2.66699 7.02675V13.5734C2.66699 19.6267 6.93366 25.2934 12.667 26.6667C13.4003 26.4934 14.107 26.2401 14.8003 25.9334C16.2403 27.9867 18.627 29.3334 21.3337 29.3334C25.747 29.3334 29.3337 25.7467 29.3337 21.3334C29.3337 17.3734 26.4537 14.0934 22.667 13.4534ZM13.3337 21.3334C13.3337 22.0801 13.4403 22.8134 13.6403 23.4934C13.3203 23.6401 13.0003 23.7867 12.667 23.8934C8.44033 22.5601 5.33366 18.2401 5.33366 13.5734V8.77341L12.667 5.57341L20.0003 8.77341V13.4534C16.2137 14.0934 13.3337 17.3734 13.3337 21.3334ZM21.3337 26.6667C18.387 26.6667 16.0003 24.2801 16.0003 21.3334C16.0003 18.3867 18.387 16.0001 21.3337 16.0001C24.2803 16.0001 26.667 18.3867 26.667 21.3334C26.667 24.2801 24.2803 26.6667 21.3337 26.6667Z" fill="#465EFF"/>
</svg>
