<svg width="32" height="32" viewBox="0 0 32 32" fill="none" xmlns="http://www.w3.org/2000/svg">
<path fill-rule="evenodd" clip-rule="evenodd" d="M16 0C7.168 0 0 7.168 0 16C0 24.832 7.168 32 16 32C24.832 32 32 24.832 32 16C32 7.168 24.832 0 16 0ZM15.9992 4.8C18.6552 4.8 20.7992 6.944 20.7992 9.6C20.7992 12.256 18.6552 14.4 15.9992 14.4C13.3432 14.4 11.1992 12.256 11.1992 9.6C11.1992 6.944 13.3432 4.8 15.9992 4.8ZM15.9984 27.52C11.9984 27.52 8.46244 25.472 6.39844 22.368C6.44644 19.184 12.7984 17.44 15.9984 17.44C19.1824 17.44 25.5504 19.184 25.5984 22.368C23.5344 25.472 19.9984 27.52 15.9984 27.52Z" fill="white" fill-opacity="0.25"/>
</svg>
