<svg width="128" height="128" viewBox="0 0 128 128" fill="none" xmlns="http://www.w3.org/2000/svg">
<path d="M105.954 70.7072L110.967 65.7037C113.72 62.9554 118.168 62.9554 120.922 65.7037L125.935 70.7072C128.688 73.4555 128.688 77.8952 125.935 80.6435L120.922 85.647L105.954 70.7072ZM100.941 75.7106L63.5208 113.06V128H78.4889L115.909 90.6504L100.941 75.7106Z" fill="#465EFF"/>
<path d="M0 91.7691L67.4612 91.7691V99.3967H0V91.7691ZM0 84.1415L82.8646 84.1415V76.514L0 76.514V84.1415ZM0 114.652H51.6997V107.024L0 107.024V114.652Z" fill="#465EFF"/>
<path d="M95.044 0H57.0729V68.648H95.044V0ZM72.3569 61.0205H64.7149V53.3929H72.3569V61.0205ZM72.3569 45.7654H64.7149V38.1378H72.3569V45.7654ZM72.3569 30.5102H64.7149V22.8827H72.3569V30.5102ZM72.3569 15.2551H64.7149V7.62756H72.3569V15.2551ZM87.6408 61.0205H79.9988V53.3929H87.6408V61.0205ZM87.6408 45.7654H79.9988V38.1378H87.6408V45.7654ZM87.6408 30.5102H79.9988V22.8827H87.6408V30.5102ZM87.6408 15.2551H79.9988V7.62756H87.6408V15.2551Z" fill="#465EFF"/>
<path d="M49.9086 15.0168V22.6784H19.5317V60.9864H49.9086V68.648H11.9375V15.0168H49.9086Z" fill="#465EFF"/>
<path d="M27.126 45.6632H34.7202V53.3248H27.126V45.6632Z" fill="#465EFF"/>
<path d="M49.9086 53.3248H42.3144V45.6632H49.9086V53.3248Z" fill="#465EFF"/>
<path d="M49.9086 38.0016H42.3144V30.34H49.9086V38.0016Z" fill="#465EFF"/>
<path d="M27.126 30.34H34.7202V38.0016H27.126V30.34Z" fill="#465EFF"/>
</svg>
