<svg width="29" height="40" viewBox="0 0 29 40" fill="none" xmlns="http://www.w3.org/2000/svg">
<g clip-path="url(#clip0_2105_5347)">
<path fill-rule="evenodd" clip-rule="evenodd" d="M25.6871 39.9957H22.3741V38.6542H25.4754C26.2097 38.6542 26.5725 38.2444 26.5725 37.6448C26.5725 36.0531 22.1971 36.2256 22.1971 33.5641C22.1971 32.1838 22.8536 31.1183 25.4927 31.1183H28.1923V32.4771H25.7648C25.0521 32.4771 24.6461 32.8049 24.6461 33.4304C24.6461 35.0998 29 34.7115 29 37.5111C29 39.8016 27.3241 40 25.6871 40V39.9957ZM14.7505 31.1183V32.5936H17.0009V40H19.2513V32.5936H21.4066V31.1183H14.7505ZM10.7249 36.1178C11.4376 36.1738 11.7831 36.7174 11.7831 37.3773C11.7831 38.404 11.1655 38.5981 10.7249 38.6369V39.9957H10.9538C11.8177 39.9957 13.9558 39.8965 13.9558 37.6491C13.9558 36.4283 13.5886 35.5958 12.146 35.4017V35.3801C13.2431 35.186 13.8003 34.4484 13.8003 33.4218C13.8003 31.5238 12.5131 31.114 10.9711 31.114H10.7206V32.49C11.2778 32.5116 11.5845 32.9947 11.5845 33.6159C11.5845 34.3923 11.0661 34.7417 10.7595 34.7417H10.7206V36.1178H10.7249ZM9.64939 36.1178H10.7249V34.7417H9.64939V32.4943H10.7249V31.1183H7.37742V39.9957H10.7249V38.6369H9.64939V36.1178ZM3.3518 36.1178C4.06449 36.1738 4.41004 36.7174 4.41004 37.3773C4.41004 38.404 3.79669 38.5981 3.3518 38.6369V39.9957H3.58073C4.44459 39.9957 6.58266 39.8965 6.58266 37.6491C6.58266 36.4283 6.21552 35.5958 4.77286 35.4017V35.3801C5.86997 35.186 6.42717 34.4484 6.42717 33.4218C6.42717 31.5238 5.14001 31.114 3.598 31.114H3.34748V32.49C3.90468 32.5116 4.21135 32.9947 4.21135 33.6159C4.21135 34.3923 3.69303 34.7417 3.38636 34.7417H3.34748V36.1178H3.3518ZM3.2179 36.1178H3.3518V34.7417H2.27629V32.4943H3.3518V31.1183H0V39.9957H3.34748V38.6369H2.27197V36.1178H3.21358H3.2179ZM27.6912 8.8515L14.5043 0L1.22237 8.87307L6.73816 12.531L13.3295 8.11819L10.4701 6.22884L14.1501 3.73989L21.9811 9.01973L9.30816 17.5865L11.9775 19.3767L27.6869 8.86013L27.6912 8.8515ZM1.24829 17.7807L14.4007 26.589L27.7301 17.716L22.2143 14.058L15.623 18.4708L18.4781 20.3602L14.8024 22.8491L6.9714 17.5693L19.6443 9.00679L16.975 7.21665L1.24829 17.7807ZM1.19214 26.6667L1.1619 23.0778L3.91332 21.2229L6.6345 23.0778L1.19214 26.671V26.6667ZM27.8381 0.0733312V3.73989L25.1601 5.52141L22.4303 3.65362L27.8381 0.0733312Z" fill="#FCFC30"/>
</g>
<defs>
<clipPath id="clip0_2105_5347">
<rect width="29" height="40" fill="white"/>
</clipPath>
</defs>
</svg>
