<svg width="38" height="52" viewBox="0 0 38 52" fill="none" xmlns="http://www.w3.org/2000/svg">
<g clip-path="url(#clip0_1_168164)">
<path fill-rule="evenodd" clip-rule="evenodd" d="M33.3489 51.9944H29.0478V50.2504H33.0741C34.0274 50.2504 34.4984 49.7177 34.4984 48.9382C34.4984 46.869 28.8179 47.0933 28.8179 43.6333C28.8179 41.8389 29.6702 40.4538 33.0965 40.4538H36.6013V42.2202H33.4498C32.5245 42.2202 31.9974 42.6464 31.9974 43.4595C31.9974 45.6297 37.65 45.125 37.65 48.7644C37.65 51.742 35.4742 52 33.3489 52V51.9944ZM19.1502 40.4538V42.3716H22.0718V52H24.9934V42.3716H27.7917V40.4538H19.1502ZM13.9239 46.9531C14.8491 47.026 15.2977 47.7326 15.2977 48.5905C15.2977 49.9252 14.4958 50.1775 13.9239 50.228V51.9944H14.2211C15.3426 51.9944 18.1184 51.8654 18.1184 48.9438C18.1184 47.3568 17.6418 46.2746 15.7688 46.0222V45.9942C17.1931 45.7418 17.9165 44.7829 17.9165 43.4483C17.9165 40.9809 16.2454 40.4482 14.2435 40.4482H13.9183V42.237C14.6416 42.2651 15.0398 42.8931 15.0398 43.7006C15.0398 44.71 14.3669 45.1642 13.9687 45.1642H13.9183V46.9531H13.9239ZM12.5276 46.9531H13.9239V45.1642H12.5276V42.2426H13.9239V40.4538H9.57791V51.9944H13.9239V50.228H12.5276V46.9531ZM4.35156 46.9531C5.27683 47.026 5.72544 47.7326 5.72544 48.5905C5.72544 49.9252 4.92915 50.1775 4.35156 50.228V51.9944H4.64877C5.7703 51.9944 8.5461 51.8654 8.5461 48.9438C8.5461 47.3568 8.06945 46.2746 6.19648 46.0222V45.9942C7.62083 45.7418 8.34422 44.7829 8.34422 43.4483C8.34422 40.9809 6.67314 40.4482 4.6712 40.4482H4.34595V42.237C5.06934 42.2651 5.46749 42.8931 5.46749 43.7006C5.46749 44.71 4.79457 45.1642 4.39642 45.1642H4.34595V46.9531H4.35156ZM4.17772 46.9531H4.35156V45.1642H2.95525V42.2426H4.35156V40.4538H0V51.9944H4.34595V50.228H2.94964V46.9531H4.17211H4.17772ZM35.9508 11.507L18.8306 0L1.58697 11.535L8.74798 16.2903L17.3053 10.5536L13.593 8.09749L18.3708 4.86186L28.5375 11.7257L12.0845 22.8625L15.5501 25.1897L35.9452 11.5182L35.9508 11.507ZM1.62062 23.1148L18.696 34.5657L36.0013 23.0307L28.8403 18.2754L20.283 24.0121L23.9896 26.4682L19.2175 29.7039L9.05079 22.8401L25.5037 11.7088L22.0382 9.38164L1.62062 23.1148ZM1.54772 34.6667L1.50847 30.0011L5.08056 27.5898L8.61339 30.0011L1.54211 34.6723L1.54772 34.6667ZM36.1415 0.0953305V4.86186L32.6647 7.17783L29.1207 4.7497L36.1415 0.0953305Z" fill="#465EFF"/>
</g>
<defs>
<clipPath id="clip0_1_168164">
<rect width="37.65" height="52" fill="white"/>
</clipPath>
</defs>
</svg>
