<svg width="128" height="128" viewBox="0 0 128 128" fill="none" xmlns="http://www.w3.org/2000/svg">
<path d="M16.6957 117.333H38.9565V128H5.56522V96H16.6957V117.333Z" fill="#465EFF"/>
<path d="M128 128H94.6087V117.333H116.87V96H128V128Z" fill="#465EFF"/>
<path fill-rule="evenodd" clip-rule="evenodd" d="M105.739 21.3333V90.6667C105.739 99.5199 98.4954 106.667 89.5217 106.667H35.462C29.5158 106.666 24.6522 101.866 24.6522 96V80H40.8152V67.8958C34.7066 67.6292 28.6491 65.2273 24 60.6406V54.7188H18L0 36.9583C7.40595 29.6522 17.0847 26.026 26.7609 26.026C31.5715 26.0263 36.3832 26.9329 40.8696 28.6927V21.3333H105.739ZM51.6793 32V35.3073L84.1141 67.1458V74.6667H76.4946L61.1957 59.625L60.1141 60.6927C57.6274 63.146 54.7607 64.9608 51.6793 66.1875V80H84.1141V90.6667C84.1141 93.6 86.5485 96 89.5217 96C92.4949 95.9999 94.9294 93.5999 94.9294 90.6667V32H51.6793ZM26.7609 36.6927C23.3552 36.6927 19.9998 37.3319 16.9185 38.5052L22.5435 44.0521H34.8696V55.5208C37.0316 56.6936 39.5196 57.3333 42.0598 57.3333C46.0045 57.3328 49.6784 55.7862 52.4348 53.0677L53.5163 52L45.8967 44.4792C40.7616 39.4663 34.0041 36.6932 26.7609 36.6927Z" fill="#465EFF"/>
<path d="M128 32H116.87V10.6667H94.6087V0H128V32Z" fill="#465EFF"/>
<path d="M38.9511 10.8385H16.6902L16.6957 20.5938C8.34798 21.334 5.56522 24 5.56522 24V0.171875H38.9511V10.8385Z" fill="#465EFF"/>
</svg>
