<svg width="32" height="32" viewBox="0 0 32 32" fill="none" xmlns="http://www.w3.org/2000/svg">
<path d="M21.9997 14.6667C18.3197 14.6667 15.333 17.6533 15.333 21.3333C15.333 25.0133 18.3197 28 21.9997 28C25.6797 28 28.6663 25.0133 28.6663 21.3333C28.6663 17.6533 25.6797 14.6667 21.9997 14.6667ZM24.1997 24.4667L21.333 21.6V17.3333H22.6663V21.0533L25.133 23.52L24.1997 24.4667Z" fill="#465EFF"/>
<path d="M13.9997 14.6667L5.99967 12.6667V8.01333L17.8263 13C19.0797 12.3733 20.493 12 21.9997 12C22.133 12 22.253 12.0133 22.373 12.0133L3.33301 4V25.3333L12.6663 21.4C12.6663 21.3733 12.6663 21.36 12.6663 21.3333C12.6663 20.2667 12.853 19.2533 13.1863 18.2933L5.99967 21.32V16.6667L13.9997 14.6667Z" fill="#465EFF"/>
</svg>
