<svg width="24" height="24" viewBox="0 0 24 24" fill="none" xmlns="http://www.w3.org/2000/svg">
<g clip-path="url(#clip0_3001_422)">
<path d="M12.4251 6.9C14.2051 6.9 14.8651 7.75 14.9251 9H17.1351C17.0651 7.28 16.0151 5.7 13.9251 5.19V3H10.9251V5.16C10.5351 5.24 10.1751 5.37 9.82511 5.52L11.3351 7.03C11.6551 6.95 12.0251 6.9 12.4251 6.9ZM5.39511 3.92L3.98511 5.33L7.42511 8.77C7.42511 10.85 8.98511 11.99 11.3351 12.68L14.8451 16.19C14.5051 16.68 13.7951 17.1 12.4251 17.1C10.3651 17.1 9.55511 16.18 9.44511 15H7.24511C7.36511 17.19 9.00511 18.42 10.9251 18.83V21H13.9251V18.85C14.8851 18.67 15.7551 18.3 16.3851 17.73L18.6051 19.95L20.0151 18.54L5.39511 3.92Z" fill="black" fill-opacity="0.25"/>
</g>
<defs>
<clipPath id="clip0_3001_422">
<rect width="24" height="24" fill="white"/>
</clipPath>
</defs>
</svg>
