<svg width="24" height="24" viewBox="0 0 24 24" fill="none" xmlns="http://www.w3.org/2000/svg">
<g clip-path="url(#clip0_3001_2896)">
<path d="M15.7101 1.19482H9.7101V3.19482H15.7101V1.19482Z" fill="black" fill-opacity="0.25"/>
<path d="M12.7101 6.19482C16.5801 6.19482 19.7101 9.32482 19.7101 13.1948C19.7101 14.1348 19.5201 15.0248 19.1901 15.8448L20.6901 17.3448C21.3401 16.1048 21.7101 14.6948 21.7101 13.1948C21.7101 11.0748 20.9701 9.12482 19.7401 7.58482L21.1601 6.16482C20.7301 5.65482 20.2601 5.17482 19.7501 4.75482L18.3301 6.17482C16.7801 4.93482 14.8301 4.19482 12.7101 4.19482C11.2101 4.19482 9.8001 4.56482 8.5601 5.21482L10.0601 6.71482C10.8801 6.38482 11.7701 6.19482 12.7101 6.19482Z" fill="black" fill-opacity="0.25"/>
<path d="M11.7101 8.36482L13.7101 10.3648V8.19482H11.7101V8.36482Z" fill="black" fill-opacity="0.25"/>
<path d="M3.5201 3.00482L2.1001 4.41482L5.5001 7.81482C4.3801 9.31482 3.7101 11.1748 3.7101 13.1948C3.7101 18.1648 7.7301 22.1948 12.7101 22.1948C14.7301 22.1948 16.5901 21.5248 18.0901 20.4048L20.4901 22.8048L21.9001 21.3948L3.5201 3.00482ZM12.7101 20.1948C8.8401 20.1948 5.7101 17.0648 5.7101 13.1948C5.7101 11.7248 6.1601 10.3648 6.9301 9.24482L16.6601 18.9748C15.5401 19.7448 14.1801 20.1948 12.7101 20.1948Z" fill="black" fill-opacity="0.25"/>
</g>
<defs>
<clipPath id="clip0_3001_2896">
<rect width="24" height="24" fill="white"/>
</clipPath>
</defs>
</svg>
