<svg width="27" height="18" viewBox="0 0 27 18" fill="none" xmlns="http://www.w3.org/2000/svg">
<path d="M6.66667 4H0V1.33333H6.66667V4ZM6.66667 8H0V10.6667H6.66667V8ZM24.7867 17.3333L19.68 12.2267C18.6133 12.92 17.36 13.3333 16 13.3333C12.32 13.3333 9.33333 10.3467 9.33333 6.66667C9.33333 2.98667 12.32 0 16 0C19.68 0 22.6667 2.98667 22.6667 6.66667C22.6667 8.02667 22.2533 9.28 21.56 10.3333L26.6667 15.4533L24.7867 17.3333ZM20 6.66667C20 4.46667 18.2 2.66667 16 2.66667C13.8 2.66667 12 4.46667 12 6.66667C12 8.86667 13.8 10.6667 16 10.6667C18.2 10.6667 20 8.86667 20 6.66667ZM0 17.3333H13.3333V14.6667H0V17.3333Z" fill="#465EFF"/>
</svg>
