<svg width="22" height="23" viewBox="0 0 22 23" fill="none" xmlns="http://www.w3.org/2000/svg">
<path d="M5 9H3V16H5V9Z" fill="white" fill-opacity="0.85"/>
<path d="M11 9H9V16H11V9Z" fill="white" fill-opacity="0.85"/>
<path d="M20 5L10 0L0 5V7H20V5ZM4.47 5L10 2.24L15.53 5H4.47Z" fill="white" fill-opacity="0.85"/>
<path d="M0 18V20H12.4C12.19 19.36 12.08 18.69 12.04 18H0Z" fill="white" fill-opacity="0.85"/>
<path d="M17 11.26V9H15V12.26L17 11.26Z" fill="white" fill-opacity="0.85"/>
<path d="M18 13L14 15V17.55C14 20.07 15.71 22.43 18 23C20.29 22.43 22 20.07 22 17.55V15L18 13ZM17.28 20L15.25 17.97L16.31 16.91L17.28 17.88L19.69 15.5L20.75 16.56L17.28 20Z" fill="white" fill-opacity="0.85"/>
</svg>
