<svg width="53" height="16" viewBox="0 0 53 16" fill="none" xmlns="http://www.w3.org/2000/svg">
<path fill-rule="evenodd" clip-rule="evenodd" d="M6.24422 11.3003L4.70407 10.253L12.0176 5.25853L7.49395 2.17822L5.37294 3.63036L7.0231 4.73487L3.21672 7.30913L0.0352035 5.17492L7.70077 0L15.3135 5.16172L6.24422 11.3003ZM9.12651 4.21562L0.0484048 10.3718L7.63916 15.5116L15.3311 10.3366L12.1452 8.20242L8.33883 10.7767L9.989 11.8812L7.86799 13.3333L3.34873 10.253L10.6623 5.25853L9.12211 4.21562H9.12651ZM3.15952 13.4609L0.0132013 15.56L0 13.4653L1.58856 12.3828L3.15952 13.4653V13.4609ZM12.2728 2.12981L13.8482 3.22112L15.3927 2.18262V0.0440044L12.2728 2.12981ZM48.6293 12.9637C50.5391 12.9637 52.4972 12.7349 52.4972 10.0594C52.4972 6.79428 47.4147 7.24752 47.4147 5.29373C47.4147 4.56766 47.8856 4.18042 48.7173 4.18042H51.5512V2.59186H48.4048C45.3245 2.59186 44.5589 3.84158 44.5589 5.45215C44.5589 8.56326 49.6634 8.35643 49.6634 10.2178C49.6634 10.9219 49.2365 11.3971 48.3828 11.3971H44.7613V12.9637H48.6293ZM35.8724 2.59186V4.31243H38.495V12.9637H41.1221V4.31683H43.6348V2.59626H35.8724V2.59186ZM31.1771 8.43124C32.0088 8.49725 32.4092 9.13091 32.4092 9.90539C32.4092 11.1067 31.692 11.3311 31.1771 11.3795V12.9637H31.4455C32.4532 12.9637 34.9439 12.8493 34.9439 10.2222C34.9439 8.79648 34.5171 7.81958 32.8361 7.59516V7.57316C34.1166 7.34873 34.7635 6.48625 34.7635 5.28493C34.7635 3.06711 33.2585 2.59186 31.4675 2.59186H31.1771V4.19802C31.8284 4.22002 32.1848 4.78768 32.1848 5.50935C32.1848 6.41584 31.5776 6.82068 31.2211 6.82068H31.1771V8.42684V8.43124ZM29.9186 8.43124H31.1771V6.82508H29.9186V4.19802H31.1771V2.59186H27.2739V12.9637H31.1771V11.3795H29.9186V8.43564V8.43124ZM22.5743 8.43124C23.4059 8.49725 23.8064 9.13091 23.8064 9.90539C23.8064 11.1067 23.0891 11.3311 22.5743 11.3795V12.9637H22.8427C23.8504 12.9637 26.341 12.8493 26.341 10.2222C26.341 8.79648 25.9142 7.81958 24.2332 7.59516V7.57316C25.5138 7.34873 26.1606 6.48625 26.1606 5.28493C26.1606 3.06711 24.6557 2.59186 22.8647 2.59186H22.5743V4.19802C23.2255 4.22002 23.582 4.78768 23.582 5.50935C23.582 6.41584 22.9747 6.82068 22.6183 6.82068H22.5743V8.42684V8.43124ZM22.4158 8.43124H22.5743V6.82508H21.3157V4.19802H22.5743V2.59186H18.6711V12.9637H22.5743V11.3795H21.3157V8.43564H22.4158V8.43124Z" fill="#465EFF"/>
</svg>
