<svg width="139" height="40" viewBox="0 0 139 40" fill="none" xmlns="http://www.w3.org/2000/svg">
<rect width="139" height="40" rx="20" fill="#465EFF"/>
<path d="M33.8852 11.77L32.1152 10L22.1152 20L32.1152 30L33.8852 28.23L25.6552 20L33.8852 11.77Z" fill="white" fill-opacity="0.65"/>
<path d="M60.3951 27H57.4431L52.5471 14.472H55.5711L58.9911 23.922L62.3391 14.472H65.2731L60.3951 27ZM72.0897 27.162C70.9497 27.162 69.8997 26.88 68.9397 26.316C67.9917 25.74 67.2357 24.96 66.6717 23.976C66.1197 22.992 65.8437 21.9 65.8437 20.7C65.8437 19.524 66.1197 18.444 66.6717 17.46C67.2357 16.476 67.9917 15.702 68.9397 15.138C69.8997 14.574 70.9497 14.292 72.0897 14.292C73.2297 14.292 74.2737 14.58 75.2217 15.156C76.1697 15.72 76.9197 16.494 77.4717 17.478C78.0237 18.45 78.2997 19.524 78.2997 20.7C78.2997 21.9 78.0237 22.992 77.4717 23.976C76.9197 24.96 76.1697 25.74 75.2217 26.316C74.2737 26.88 73.2297 27.162 72.0897 27.162ZM72.0897 24.66C72.7497 24.66 73.3437 24.492 73.8717 24.156C74.4117 23.808 74.8377 23.334 75.1497 22.734C75.4617 22.134 75.6177 21.456 75.6177 20.7C75.6177 19.968 75.4617 19.308 75.1497 18.72C74.8497 18.12 74.4297 17.652 73.8897 17.316C73.3497 16.98 72.7497 16.812 72.0897 16.812C71.4417 16.812 70.8417 16.98 70.2897 17.316C69.7497 17.652 69.3177 18.114 68.9937 18.702C68.6817 19.29 68.5257 19.956 68.5257 20.7C68.5257 21.456 68.6817 22.134 68.9937 22.734C69.3057 23.334 69.7317 23.808 70.2717 24.156C70.8237 24.492 71.4297 24.66 72.0897 24.66ZM89.394 27H80.826V14.472H83.436V24.498H89.394V27ZM94.7573 27H92.1473V16.956H88.2413V14.472H98.6813V16.956H94.7573V27ZM100.582 27H97.8819L102.49 14.472H105.64L110.266 27H107.512L106.522 24.21H101.536L100.582 27ZM103.984 16.884L102.22 22.104H105.82L103.984 16.884ZM112.296 27V14.472H116.958C118.386 14.472 119.526 14.814 120.378 15.498C121.23 16.182 121.656 17.112 121.656 18.288C121.656 19.032 121.464 19.692 121.08 20.268C120.708 20.844 120.132 21.348 119.352 21.78L122.538 27H119.658L117.084 22.698C116.4 22.89 115.626 23.052 114.762 23.184V27H112.296ZM114.762 21.042C116.346 20.802 117.45 20.466 118.074 20.034C118.698 19.602 119.01 19.062 119.01 18.414C119.01 17.874 118.836 17.454 118.488 17.154C118.14 16.842 117.606 16.686 116.886 16.686H114.762V21.042Z" fill="white" fill-opacity="0.85"/>
</svg>
