<svg width="32" height="32" viewBox="0 0 32 32" fill="none" xmlns="http://www.w3.org/2000/svg">
<path d="M26.4885 17.6768L27.7417 16.4259C28.4301 15.7388 29.5421 15.7388 30.2305 16.4259L31.4837 17.6768C32.1721 18.3639 32.1721 19.4738 31.4837 20.1609L30.2305 21.4117L26.4885 17.6768ZM25.2352 18.9276L15.8802 28.265V32H19.6222L28.9773 22.6626L25.2352 18.9276Z" fill="#FCFC30"/>
<path d="M0 22.9423L16.8653 22.9423V24.8492H0V22.9423ZM0 21.0354L20.7161 21.0354V19.1285L0 19.1285V21.0354ZM0 28.6629H12.9249V26.7561L0 26.7561V28.6629Z" fill="#FCFC30"/>
<path d="M23.761 0H14.2682V17.162H23.761V0ZM18.0892 15.2551H16.1787V13.3482H18.0892V15.2551ZM18.0892 11.4413H16.1787V9.53445H18.0892V11.4413ZM18.0892 7.62756H16.1787V5.72067H18.0892V7.62756ZM18.0892 3.81378H16.1787V1.90689H18.0892V3.81378ZM21.9102 15.2551H19.9997V13.3482H21.9102V15.2551ZM21.9102 11.4413H19.9997V9.53445H21.9102V11.4413ZM21.9102 7.62756H19.9997V5.72067H21.9102V7.62756ZM21.9102 3.81378H19.9997V1.90689H21.9102V3.81378Z" fill="#FCFC30"/>
<path d="M12.4771 3.75419V5.66959H4.88294V15.2466H12.4771V17.162H2.98438V3.75419H12.4771Z" fill="#FCFC30"/>
<path d="M6.78149 11.4158H8.68004V13.3312H6.78149V11.4158Z" fill="#FCFC30"/>
<path d="M12.4771 13.3312H10.5786V11.4158H12.4771V13.3312Z" fill="#FCFC30"/>
<path d="M12.4771 9.5004H10.5786V7.585H12.4771V9.5004Z" fill="#FCFC30"/>
<path d="M6.78149 7.585H8.68004V9.5004H6.78149V7.585Z" fill="#FCFC30"/>
</svg>
