<svg width="32" height="32" viewBox="0 0 32 32" fill="none" xmlns="http://www.w3.org/2000/svg">
<path d="M9.33341 3.99999H5.33341V8H2.66675V1.33333H9.33341V3.99999ZM29.3334 8V1.33333H22.6667V3.99999H26.6667V8H29.3334ZM9.33341 28H5.33341V24H2.66675V30.6667H9.33341V28ZM26.6667 24V28H22.6667V30.6667H29.3334V24H26.6667ZM22.6667 8H9.33341V24H22.6667V8ZM25.3334 24C25.3334 25.4667 24.1334 26.6667 22.6667 26.6667H9.33341C7.86675 26.6667 6.66675 25.4667 6.66675 24V8C6.66675 6.53333 7.86675 5.33333 9.33341 5.33333H22.6667C24.1334 5.33333 25.3334 6.53333 25.3334 8V24ZM20.0001 10.6667H12.0001V13.3333H20.0001V10.6667ZM20.0001 14.6667H12.0001V17.3333H20.0001V14.6667ZM20.0001 18.6667H12.0001V21.3333H20.0001V18.6667Z" fill="#465EFF"/>
</svg>
