<svg width="24" height="24" viewBox="0 0 24 24" fill="none" xmlns="http://www.w3.org/2000/svg">
<path d="M15.7101 1.19501H9.7101V3.19501H15.7101V1.19501Z" fill="#735CC6"/>
<path d="M12.7101 6.19501C16.5801 6.19501 19.7101 9.32501 19.7101 13.195C19.7101 14.135 19.5201 15.025 19.1901 15.845L20.6901 17.345C21.3401 16.105 21.7101 14.695 21.7101 13.195C21.7101 11.075 20.9701 9.12501 19.7401 7.58501L21.1601 6.16501C20.7301 5.65501 20.2601 5.17501 19.7501 4.75501L18.3301 6.17501C16.7801 4.93501 14.8301 4.19501 12.7101 4.19501C11.2101 4.19501 9.8001 4.56501 8.5601 5.21501L10.0601 6.71501C10.8801 6.38501 11.7701 6.19501 12.7101 6.19501Z" fill="#735CC6"/>
<path d="M11.7101 8.36501L13.7101 10.365V8.19501H11.7101V8.36501Z" fill="#735CC6"/>
<path d="M3.5201 3.00501L2.1001 4.41501L5.5001 7.81501C4.3801 9.31501 3.7101 11.175 3.7101 13.195C3.7101 18.165 7.7301 22.195 12.7101 22.195C14.7301 22.195 16.5901 21.525 18.0901 20.405L20.4901 22.805L21.9001 21.395L3.5201 3.00501ZM12.7101 20.195C8.8401 20.195 5.7101 17.065 5.7101 13.195C5.7101 11.725 6.1601 10.365 6.9301 9.24501L16.6601 18.975C15.5401 19.745 14.1801 20.195 12.7101 20.195Z" fill="#735CC6"/>
</svg>
