<svg width="26" height="24" viewBox="0 0 26 24" fill="none" xmlns="http://www.w3.org/2000/svg">
<path d="M18.6667 10.6667C14.9867 10.6667 12 13.6533 12 17.3333C12 21.0133 14.9867 24 18.6667 24C22.3467 24 25.3333 21.0133 25.3333 17.3333C25.3333 13.6533 22.3467 10.6667 18.6667 10.6667ZM20.8667 20.4667L18 17.6V13.3333H19.3333V17.0533L21.8 19.52L20.8667 20.4667Z" fill="#465EFF"/>
<path d="M10.6667 10.6667L2.66667 8.66667V4.01333L14.4933 9C15.7467 8.37333 17.16 8 18.6667 8C18.8 8 18.92 8.01333 19.04 8.01333L0 0V21.3333L9.33333 17.4C9.33333 17.3733 9.33333 17.36 9.33333 17.3333C9.33333 16.2667 9.52 15.2533 9.85333 14.2933L2.66667 17.32V12.6667L10.6667 10.6667Z" fill="#465EFF"/>
</svg>
