<svg width="30" height="31" viewBox="0 0 30 31" fill="none" xmlns="http://www.w3.org/2000/svg">
<path d="M6.66667 12H4V21.3333H6.66667V12Z" fill="#465EFF"/>
<path d="M14.6667 12H12V21.3333H14.6667V12Z" fill="#465EFF"/>
<path d="M26.6667 6.66667L13.3333 0L0 6.66667V9.33333H26.6667V6.66667ZM5.96 6.66667L13.3333 2.98667L20.7067 6.66667H5.96Z" fill="#465EFF"/>
<path d="M0 24V26.6667H16.5333C16.2533 25.8133 16.1067 24.92 16.0533 24H0Z" fill="#465EFF"/>
<path d="M22.6667 15.0133V12H20V16.3467L22.6667 15.0133Z" fill="#465EFF"/>
<path d="M24 17.3333L18.6667 20V23.4C18.6667 26.76 20.9467 29.9067 24 30.6667C27.0533 29.9067 29.3333 26.76 29.3333 23.4V20L24 17.3333ZM23.04 26.6667L20.3333 23.96L21.7467 22.5467L23.04 23.84L26.2533 20.6667L27.6667 22.08L23.04 26.6667Z" fill="#465EFF"/>
</svg>
